# Blender v2.74 (sub 0) OBJ File: 'stage1.blend'
# www.blender.org
mtllib stage1.mtl
o Cube.001
v -4.000000 0.000000 3.000000
v -4.000000 1.000000 3.000000
v -4.000000 0.000000 2.000000
v -4.000000 1.000000 2.000000
v 1.000000 0.000000 3.000000
v 1.000000 1.000000 3.000000
v 1.000000 0.000000 2.000000
v 1.000000 1.000000 2.000000
vn -1.000000 0.000000 0.000000
vn 0.000000 0.000000 -1.000000
vn 1.000000 0.000000 0.000000
vn 0.000000 0.000000 1.000000
vn 0.000000 -1.000000 0.000000
vn 0.000000 1.000000 0.000000
usemtl None
s off
f 2//1 4//1 3//1 1//1
f 4//2 8//2 7//2 3//2
f 8//3 6//3 5//3 7//3
f 6//4 2//4 1//4 5//4
f 1//5 3//5 7//5 5//5
f 6//6 8//6 4//6 2//6
o Plane.009
v -3.000000 0.000000 -4.000000
v 5.000000 0.000000 -4.000000
v -3.000000 4.000000 -4.000000
v 5.000000 4.000000 -4.000000
vn 0.000000 0.000000 1.000000
usemtl None
s off
f 9//7 10//7 12//7 11//7
o Cube
v 2.500000 0.000000 3.500000
v 2.500000 4.000000 3.500000
v 2.500000 0.000000 2.500000
v 2.500000 4.000000 2.500000
v 3.500000 0.000000 3.500000
v 3.500000 4.000000 3.500000
v 3.500000 0.000000 2.500000
v 3.500000 4.000000 2.500000
vn -1.000000 0.000000 0.000000
vn 0.000000 0.000000 -1.000000
vn 1.000000 0.000000 0.000000
vn 0.000000 0.000000 1.000000
vn 0.000000 -1.000000 0.000000
vn 0.000000 1.000000 0.000000
usemtl None
s off
f 14//8 16//8 15//8 13//8
f 16//9 20//9 19//9 15//9
f 20//10 18//10 17//10 19//10
f 18//11 14//11 13//11 17//11
f 13//12 15//12 19//12 17//12
f 18//13 20//13 16//13 14//13
o Plane.008
v -5.000000 2.000000 5.000000
v 1.000000 2.000000 5.000000
v -5.000000 4.000000 5.000000
v 1.000000 4.000000 5.000000
vn 0.000000 0.000000 1.000000
usemtl None
s off
f 21//14 22//14 24//14 23//14
o Plane.007
v 1.000000 2.000000 -1.000000
v 1.000000 2.000000 5.000000
v 1.000000 4.000000 -1.000000
v 1.000000 4.000000 5.000000
vn -1.000000 0.000000 0.000000
usemtl None
s off
f 25//15 26//15 28//15 27//15
o Plane.006
v 1.000000 0.000000 -4.000000
v 1.000000 0.000000 2.000000
v 1.000000 2.000000 -4.000000
v 1.000000 2.000000 2.000000
vn -1.000000 0.000000 0.000000
usemtl None
s off
f 29//16 30//16 32//16 31//16
o Plane.005
v -5.000000 0.000000 2.000000
v 1.000000 0.000000 2.000000
v -5.000000 2.000000 2.000000
v 1.000000 2.000000 2.000000
vn 0.000000 0.000000 1.000000
usemtl None
s off
f 33//17 34//17 36//17 35//17
o Plane.004
v -5.000000 4.000000 5.000000
v 5.000000 4.000000 5.000000
v -5.000000 4.000000 -5.000000
v 5.000000 4.000000 -5.000000
v -5.000000 4.000000 -4.000000
v -5.000000 4.000000 -3.000000
v -5.000000 4.000000 -2.000000
v -5.000000 4.000000 -1.000000
v -5.000000 4.000000 0.000000
v -5.000000 4.000000 1.000000
v -5.000000 4.000000 2.000000
v -5.000000 4.000000 3.000000
v -5.000000 4.000000 4.000000
v -4.000000 4.000000 5.000000
v -3.000000 4.000000 5.000000
v -2.000000 4.000000 5.000000
v -1.000000 4.000000 5.000000
v 0.000000 4.000000 5.000000
v 1.000000 4.000000 5.000000
v 2.000000 4.000000 5.000000
v 3.000000 4.000000 5.000000
v 4.000000 4.000000 5.000000
v 5.000000 4.000000 4.000000
v 5.000000 4.000000 3.000000
v 5.000000 4.000000 2.000000
v 5.000000 4.000000 1.000000
v 5.000000 4.000000 0.000000
v 5.000000 4.000000 -1.000000
v 5.000000 4.000000 -2.000000
v 5.000000 4.000000 -3.000000
v 5.000000 4.000000 -4.000000
v 4.000000 4.000000 -5.000000
v 3.000000 4.000000 -5.000000
v 2.000000 4.000000 -5.000000
v 1.000000 4.000000 -5.000000
v 0.000000 4.000000 -5.000000
v -1.000000 4.000000 -5.000000
v -2.000000 4.000000 -5.000000
v -3.000000 4.000000 -5.000000
v -4.000000 4.000000 -5.000000
v -4.000000 4.000000 4.000000
v -4.000000 4.000000 3.000000
v -4.000000 4.000000 2.000000
v -4.000000 4.000000 1.000000
v -4.000000 4.000000 0.000000
v -4.000000 4.000000 -1.000000
v -4.000000 4.000000 -2.000000
v -4.000000 4.000000 -3.000000
v -4.000000 4.000000 -4.000000
v -3.000000 4.000000 4.000000
v -3.000000 4.000000 3.000000
v -3.000000 4.000000 2.000000
v -3.000000 4.000000 1.000000
v -3.000000 4.000000 0.000000
v -3.000000 4.000000 -1.000000
v -3.000000 4.000000 -2.000000
v -3.000000 4.000000 -3.000000
v -3.000000 4.000000 -4.000000
v -2.000000 4.000000 4.000000
v -2.000000 4.000000 3.000000
v -2.000000 4.000000 2.000000
v -2.000000 4.000000 1.000000
v -2.000000 4.000000 0.000000
v -2.000000 4.000000 -1.000000
v -2.000000 4.000000 -2.000000
v -2.000000 4.000000 -3.000000
v -2.000000 4.000000 -4.000000
v -1.000000 4.000000 4.000000
v -1.000000 4.000000 3.000000
v -1.000000 4.000000 2.000000
v -1.000000 4.000000 1.000000
v -1.000000 4.000000 0.000000
v -1.000000 4.000000 -1.000000
v -1.000000 4.000000 -2.000000
v -1.000000 4.000000 -3.000000
v -1.000000 4.000000 -4.000000
v 0.000000 4.000000 4.000000
v 0.000000 4.000000 3.000000
v 0.000000 4.000000 2.000000
v 0.000000 4.000000 1.000000
v 0.000000 4.000000 0.000000
v 0.000000 4.000000 -1.000000
v 0.000000 4.000000 -2.000000
v 0.000000 4.000000 -3.000000
v 0.000000 4.000000 -4.000000
v 1.000000 4.000000 4.000000
v 1.000000 4.000000 3.000000
v 1.000000 4.000000 2.000000
v 1.000000 4.000000 1.000000
v 1.000000 4.000000 0.000000
v 1.000000 4.000000 -1.000000
v 1.000000 4.000000 -2.000000
v 1.000000 4.000000 -3.000000
v 1.000000 4.000000 -4.000000
v 2.000000 4.000000 4.000000
v 2.000000 4.000000 3.000000
v 2.000000 4.000000 2.000000
v 2.000000 4.000000 1.000000
v 2.000000 4.000000 0.000000
v 2.000000 4.000000 -1.000000
v 2.000000 4.000000 -2.000000
v 2.000000 4.000000 -3.000000
v 2.000000 4.000000 -4.000000
v 3.000000 4.000000 4.000000
v 3.000000 4.000000 3.000000
v 3.000000 4.000000 2.000000
v 3.000000 4.000000 1.000000
v 3.000000 4.000000 0.000000
v 3.000000 4.000000 -1.000000
v 3.000000 4.000000 -2.000000
v 3.000000 4.000000 -3.000000
v 3.000000 4.000000 -4.000000
v 4.000000 4.000000 4.000000
v 4.000000 4.000000 3.000000
v 4.000000 4.000000 2.000000
v 4.000000 4.000000 1.000000
v 4.000000 4.000000 0.000000
v 4.000000 4.000000 -1.000000
v 4.000000 4.000000 -2.000000
v 4.000000 4.000000 -3.000000
v 4.000000 4.000000 -4.000000
vn 0.000000 1.000000 0.000000
usemtl None
s off
f 157//18 67//18 40//18 68//18
f 41//18 85//18 76//18 39//18
f 85//18 94//18 75//18 76//18
f 94//18 103//18 74//18 75//18
f 103//18 112//18 73//18 74//18
f 112//18 121//18 72//18 73//18
f 121//18 130//18 71//18 72//18
f 130//18 139//18 70//18 71//18
f 139//18 148//18 69//18 70//18
f 148//18 157//18 68//18 69//18
f 37//18 50//18 77//18 49//18
f 49//18 77//18 78//18 48//18
f 48//18 78//18 79//18 47//18
f 47//18 79//18 80//18 46//18
f 46//18 80//18 81//18 45//18
f 45//18 81//18 82//18 44//18
f 44//18 82//18 83//18 43//18
f 43//18 83//18 84//18 42//18
f 42//18 84//18 85//18 41//18
f 50//18 51//18 86//18 77//18
f 77//18 86//18 87//18 78//18
f 78//18 87//18 88//18 79//18
f 79//18 88//18 89//18 80//18
f 80//18 89//18 90//18 81//18
f 81//18 90//18 91//18 82//18
f 82//18 91//18 92//18 83//18
f 83//18 92//18 93//18 84//18
f 84//18 93//18 94//18 85//18
f 51//18 52//18 95//18 86//18
f 86//18 95//18 96//18 87//18
f 87//18 96//18 97//18 88//18
f 88//18 97//18 98//18 89//18
f 89//18 98//18 99//18 90//18
f 90//18 99//18 100//18 91//18
f 91//18 100//18 101//18 92//18
f 92//18 101//18 102//18 93//18
f 93//18 102//18 103//18 94//18
f 52//18 53//18 104//18 95//18
f 95//18 104//18 105//18 96//18
f 96//18 105//18 106//18 97//18
f 97//18 106//18 107//18 98//18
f 98//18 107//18 108//18 99//18
f 99//18 108//18 109//18 100//18
f 100//18 109//18 110//18 101//18
f 101//18 110//18 111//18 102//18
f 102//18 111//18 112//18 103//18
f 53//18 54//18 113//18 104//18
f 104//18 113//18 114//18 105//18
f 105//18 114//18 115//18 106//18
f 106//18 115//18 116//18 107//18
f 107//18 116//18 117//18 108//18
f 108//18 117//18 118//18 109//18
f 109//18 118//18 119//18 110//18
f 110//18 119//18 120//18 111//18
f 111//18 120//18 121//18 112//18
f 54//18 55//18 122//18 113//18
f 113//18 122//18 123//18 114//18
f 114//18 123//18 124//18 115//18
f 115//18 124//18 125//18 116//18
f 116//18 125//18 126//18 117//18
f 117//18 126//18 127//18 118//18
f 118//18 127//18 128//18 119//18
f 119//18 128//18 129//18 120//18
f 120//18 129//18 130//18 121//18
f 55//18 56//18 131//18 122//18
f 122//18 131//18 132//18 123//18
f 123//18 132//18 133//18 124//18
f 124//18 133//18 134//18 125//18
f 125//18 134//18 135//18 126//18
f 126//18 135//18 136//18 127//18
f 127//18 136//18 137//18 128//18
f 128//18 137//18 138//18 129//18
f 129//18 138//18 139//18 130//18
f 56//18 57//18 140//18 131//18
f 131//18 140//18 141//18 132//18
f 132//18 141//18 142//18 133//18
f 133//18 142//18 143//18 134//18
f 134//18 143//18 144//18 135//18
f 135//18 144//18 145//18 136//18
f 136//18 145//18 146//18 137//18
f 137//18 146//18 147//18 138//18
f 138//18 147//18 148//18 139//18
f 57//18 58//18 149//18 140//18
f 140//18 149//18 150//18 141//18
f 141//18 150//18 151//18 142//18
f 142//18 151//18 152//18 143//18
f 143//18 152//18 153//18 144//18
f 144//18 153//18 154//18 145//18
f 145//18 154//18 155//18 146//18
f 146//18 155//18 156//18 147//18
f 147//18 156//18 157//18 148//18
f 58//18 38//18 59//18 149//18
f 149//18 59//18 60//18 150//18
f 150//18 60//18 61//18 151//18
f 151//18 61//18 62//18 152//18
f 152//18 62//18 63//18 153//18
f 153//18 63//18 64//18 154//18
f 154//18 64//18 65//18 155//18
f 155//18 65//18 66//18 156//18
f 156//18 66//18 67//18 157//18
o Plane.003
v -5.000000 0.000000 -6.000000
v -3.000000 0.000000 -6.000000
v -5.000000 2.000000 -6.000000
v -3.000000 2.000000 -6.000000
vn 0.000000 0.000000 1.000000
usemtl None
s off
f 158//19 159//19 161//19 160//19
o Plane.002
v -1.000000 0.000000 -6.000000
v 1.000000 0.000000 -6.000000
v -1.000000 2.000000 -6.000000
v 1.000000 2.000000 -6.000000
vn 0.000000 0.000000 1.000000
usemtl None
s off
f 162//20 163//20 165//20 164//20
o Plane.001
v -5.000000 0.000000 5.000000
v 5.000000 0.000000 5.000000
v -5.000000 0.000000 -5.000000
v 5.000000 0.000000 -5.000000
v -5.000000 0.000000 -4.000000
v -5.000000 0.000000 -3.000000
v -5.000000 0.000000 -2.000000
v -5.000000 0.000000 -1.000000
v -5.000000 0.000000 0.000000
v -5.000000 0.000000 1.000000
v -5.000000 0.000000 2.000000
v -5.000000 0.000000 3.000000
v -5.000000 0.000000 4.000000
v -4.000000 0.000000 5.000000
v -3.000000 0.000000 5.000000
v -2.000000 0.000000 5.000000
v -1.000000 0.000000 5.000000
v 0.000000 0.000000 5.000000
v 1.000000 0.000000 5.000000
v 2.000000 0.000000 5.000000
v 3.000000 0.000000 5.000000
v 4.000000 0.000000 5.000000
v 5.000000 0.000000 4.000000
v 5.000000 0.000000 3.000000
v 5.000000 0.000000 2.000000
v 5.000000 0.000000 1.000000
v 5.000000 0.000000 0.000000
v 5.000000 0.000000 -1.000000
v 5.000000 0.000000 -2.000000
v 5.000000 0.000000 -3.000000
v 5.000000 0.000000 -4.000000
v 4.000000 0.000000 -5.000000
v 3.000000 0.000000 -5.000000
v 2.000000 0.000000 -5.000000
v 1.000000 0.000000 -5.000000
v 0.000000 0.000000 -5.000000
v -1.000000 0.000000 -5.000000
v -2.000000 0.000000 -5.000000
v -3.000000 0.000000 -5.000000
v -4.000000 0.000000 -5.000000
v -4.000000 0.000000 4.000000
v -4.000000 0.000000 3.000000
v -4.000000 0.000000 2.000000
v -4.000000 0.000000 1.000000
v -4.000000 0.000000 0.000000
v -4.000000 0.000000 -1.000000
v -4.000000 0.000000 -2.000000
v -4.000000 0.000000 -3.000000
v -4.000000 0.000000 -4.000000
v -3.000000 0.000000 4.000000
v -3.000000 0.000000 3.000000
v -3.000000 0.000000 2.000000
v -3.000000 0.000000 1.000000
v -3.000000 0.000000 0.000000
v -3.000000 0.000000 -1.000000
v -3.000000 0.000000 -2.000000
v -3.000000 0.000000 -3.000000
v -3.000000 0.000000 -4.000000
v -2.000000 0.000000 4.000000
v -2.000000 0.000000 3.000000
v -2.000000 0.000000 2.000000
v -2.000000 0.000000 1.000000
v -2.000000 0.000000 0.000000
v -2.000000 0.000000 -1.000000
v -2.000000 0.000000 -2.000000
v -2.000000 0.000000 -3.000000
v -2.000000 0.000000 -4.000000
v -1.000000 0.000000 4.000000
v -1.000000 0.000000 3.000000
v -1.000000 0.000000 2.000000
v -1.000000 0.000000 1.000000
v -1.000000 0.000000 0.000000
v -1.000000 0.000000 -1.000000
v -1.000000 0.000000 -2.000000
v -1.000000 0.000000 -3.000000
v -1.000000 0.000000 -4.000000
v 0.000000 0.000000 4.000000
v 0.000000 0.000000 3.000000
v 0.000000 0.000000 2.000000
v 0.000000 0.000000 1.000000
v 0.000000 0.000000 0.000000
v 0.000000 0.000000 -1.000000
v 0.000000 0.000000 -2.000000
v 0.000000 0.000000 -3.000000
v 0.000000 0.000000 -4.000000
v 1.000000 0.000000 4.000000
v 1.000000 0.000000 3.000000
v 1.000000 0.000000 2.000000
v 1.000000 0.000000 1.000000
v 1.000000 0.000000 0.000000
v 1.000000 0.000000 -1.000000
v 1.000000 0.000000 -2.000000
v 1.000000 0.000000 -3.000000
v 1.000000 0.000000 -4.000000
v 2.000000 0.000000 4.000000
v 2.000000 0.000000 3.000000
v 2.000000 0.000000 2.000000
v 2.000000 0.000000 1.000000
v 2.000000 0.000000 0.000000
v 2.000000 0.000000 -1.000000
v 2.000000 0.000000 -2.000000
v 2.000000 0.000000 -3.000000
v 2.000000 0.000000 -4.000000
v 3.000000 0.000000 4.000000
v 3.000000 0.000000 3.000000
v 3.000000 0.000000 2.000000
v 3.000000 0.000000 1.000000
v 3.000000 0.000000 0.000000
v 3.000000 0.000000 -1.000000
v 3.000000 0.000000 -2.000000
v 3.000000 0.000000 -3.000000
v 3.000000 0.000000 -4.000000
v 4.000000 0.000000 4.000000
v 4.000000 0.000000 3.000000
v 4.000000 0.000000 2.000000
v 4.000000 0.000000 1.000000
v 4.000000 0.000000 0.000000
v 4.000000 0.000000 -1.000000
v 4.000000 0.000000 -2.000000
v 4.000000 0.000000 -3.000000
v 4.000000 0.000000 -4.000000
v 3.000000 1.000000 -2.000000
v 4.000000 1.000000 -2.000000
v 3.000000 1.000000 -3.000000
v 4.000000 1.000000 -3.000000
v 5.000000 1.000000 -2.000000
v 5.000000 1.000000 -3.000000
v 4.000000 2.000000 1.000000
v 5.000000 2.000000 1.000000
v 4.000000 2.000000 2.000000
v 5.000000 2.000000 2.000000
v 3.000000 2.000000 1.000000
v 3.000000 2.000000 2.000000
v 2.000000 2.000000 1.000000
v 2.000000 2.000000 2.000000
v 3.000000 2.000000 0.000000
v 2.000000 2.000000 0.000000
v 3.000000 2.000000 -1.000000
v 2.000000 2.000000 -1.000000
v 3.000000 2.000000 -2.000000
v 2.000000 2.000000 -2.000000
v 4.000000 2.000000 3.000000
v 5.000000 2.000000 3.000000
v 4.000000 2.000000 4.000000
v 5.000000 2.000000 4.000000
v 4.000000 2.000000 5.000000
v 5.000000 2.000000 5.000000
v 3.000000 2.000000 4.000000
v 3.000000 2.000000 5.000000
v 2.000000 2.000000 4.000000
v 2.000000 2.000000 5.000000
v 1.000000 2.000000 4.000000
v 1.000000 2.000000 5.000000
v 2.000000 2.000000 3.000000
v 1.000000 2.000000 3.000000
v 2.000000 2.000000 2.000000
v 1.000000 2.000000 2.000000
v 2.000000 2.000000 1.000000
v 1.000000 2.000000 1.000000
v 1.000000 2.000000 0.000000
v 1.000000 2.000000 -1.000000
v 1.000000 2.000000 -2.000000
v 3.000000 1.000000 -4.000000
v 4.000000 1.000000 -4.000000
v 5.000000 1.000000 -4.000000
v 3.000000 2.000000 -3.000000
v 2.000000 2.000000 -3.000000
v 1.000000 2.000000 -3.000000
v 3.000000 2.000000 -4.000000
v 2.000000 2.000000 -4.000000
v 1.000000 2.000000 -4.000000
v 0.000000 2.000000 -1.000000
v 0.000000 2.000000 -2.000000
v 0.000000 2.000000 -3.000000
v 0.000000 2.000000 -4.000000
v -1.000000 2.000000 -1.000000
v -1.000000 2.000000 -2.000000
v -1.000000 2.000000 -3.000000
v -1.000000 2.000000 -4.000000
v -2.000000 2.000000 -1.000000
v -2.000000 2.000000 -2.000000
v -2.000000 2.000000 -3.000000
v -2.000000 2.000000 -4.000000
vn 0.000000 1.000000 0.000000
vn 0.000000 -0.948700 -0.316200
vn 0.000000 -1.000000 0.000000
vn 0.000000 -0.948700 0.316200
usemtl None
s off
f 286//21 196//21 169//21 197//21
f 170//21 214//21 205//21 168//21
f 214//21 223//21 204//21 205//21
f 223//21 232//21 203//21 204//21
f 232//21 241//21 202//21 203//21
f 241//21 250//21 201//21 202//21
f 250//21 259//21 200//21 201//21
f 259//21 268//21 199//21 200//21
f 268//21 277//21 198//21 199//21
f 277//21 286//21 197//21 198//21
f 166//21 179//21 206//21 178//21
f 178//21 206//21 207//21 177//21
f 177//21 207//21 208//21 176//21
f 176//21 208//21 209//21 175//21
f 175//21 209//21 210//21 174//21
f 174//21 210//21 211//21 173//21
f 173//21 211//21 212//21 172//21
f 172//21 212//21 213//21 171//21
f 171//21 213//21 214//21 170//21
f 179//21 180//21 215//21 206//21
f 206//21 215//21 216//21 207//21
f 207//21 216//21 217//21 208//21
f 208//21 217//21 218//21 209//21
f 209//21 218//21 219//21 210//21
f 210//21 219//21 220//21 211//21
f 211//21 220//21 221//21 212//21
f 212//21 221//21 222//21 213//21
f 213//21 222//21 223//21 214//21
f 180//21 181//21 224//21 215//21
f 215//21 224//21 225//21 216//21
f 216//21 225//21 226//21 217//21
f 217//21 226//21 227//21 218//21
f 218//21 227//21 228//21 219//21
f 219//21 228//21 229//21 220//21
f 220//21 229//21 230//21 221//21
f 221//21 230//21 231//21 222//21
f 222//21 231//21 232//21 223//21
f 181//21 182//21 233//21 224//21
f 224//21 233//21 234//21 225//21
f 225//21 234//21 235//21 226//21
f 226//21 235//21 236//21 227//21
f 227//21 236//21 237//21 228//21
f 228//21 237//21 238//21 229//21
f 229//21 238//21 239//21 230//21
f 230//21 239//21 240//21 231//21
f 231//21 240//21 241//21 232//21
f 182//21 183//21 242//21 233//21
f 233//21 242//21 243//21 234//21
f 234//21 243//21 244//21 235//21
f 235//21 244//21 245//21 236//21
f 236//21 245//21 246//21 237//21
f 237//21 246//21 247//21 238//21
f 238//21 247//21 248//21 239//21
f 239//21 248//21 249//21 240//21
f 240//21 249//21 250//21 241//21
f 183//21 184//21 251//21 242//21
f 242//21 251//21 252//21 243//21
f 243//21 252//21 253//21 244//21
f 244//21 253//21 254//21 245//21
f 245//21 254//21 255//21 246//21
f 246//21 255//21 256//21 247//21
f 247//21 256//21 257//21 248//21
f 248//21 257//21 258//21 249//21
f 249//21 258//21 259//21 250//21
f 184//21 185//21 260//21 251//21
f 251//21 260//21 261//21 252//21
f 252//21 261//21 262//21 253//21
f 253//21 262//21 263//21 254//21
f 254//21 263//21 264//21 255//21
f 255//21 264//21 265//21 256//21
f 256//21 265//21 266//21 257//21
f 257//21 266//21 267//21 258//21
f 258//21 267//21 268//21 259//21
f 185//21 186//21 269//21 260//21
f 260//21 269//21 270//21 261//21
f 261//21 270//21 271//21 262//21
f 262//21 271//21 272//21 263//21
f 263//21 272//21 273//21 264//21
f 264//21 273//21 274//21 265//21
f 265//21 274//21 275//21 266//21
f 266//21 275//21 276//21 267//21
f 267//21 276//21 277//21 268//21
f 186//21 187//21 278//21 269//21
f 269//21 278//21 279//21 270//21
f 270//21 279//21 280//21 271//21
f 271//21 280//21 281//21 272//21
f 272//21 281//21 282//21 273//21
f 273//21 282//21 283//21 274//21
f 274//21 283//21 284//21 275//21
f 275//21 284//21 285//21 276//21
f 276//21 285//21 286//21 277//21
f 187//21 167//21 188//21 278//21
f 278//21 188//21 189//21 279//21
f 279//21 189//21 190//21 280//21
f 280//21 190//21 191//21 281//21
f 281//21 191//21 192//21 282//21
f 282//21 192//21 193//21 283//21
f 283//21 193//21 194//21 284//21
f 284//21 194//21 195//21 285//21
f 285//21 195//21 196//21 286//21
f 281//22 272//22 287//22 288//22
f 288//23 287//23 289//23 290//23
f 288//23 290//23 292//23 291//23
f 288//24 291//24 294//24 293//24
f 293//23 294//23 296//23 295//23
f 293//23 295//23 298//23 297//23
f 297//23 298//23 300//23 299//23
f 297//23 299//23 302//23 301//23
f 301//23 302//23 304//23 303//23
f 303//23 304//23 306//23 305//23
f 295//23 296//23 308//23 307//23
f 307//23 308//23 310//23 309//23
f 309//23 310//23 312//23 311//23
f 309//23 311//23 314//23 313//23
f 313//23 314//23 316//23 315//23
f 315//23 316//23 318//23 317//23
f 315//23 317//23 320//23 319//23
f 319//23 320//23 322//23 321//23
f 321//23 322//23 324//23 323//23
f 302//23 299//23 324//23 325//23
f 304//23 302//23 325//23 326//23
f 306//23 304//23 326//23 327//23
f 292//23 290//23 329//23 330//23
f 290//23 289//23 328//23 329//23
f 306//23 327//23 333//23 332//23
f 305//23 306//23 332//23 331//23
f 332//23 333//23 336//23 335//23
f 331//23 332//23 335//23 334//23
f 336//23 333//23 339//23 340//23
f 333//23 327//23 338//23 339//23
f 327//23 326//23 337//23 338//23
f 340//23 339//23 343//23 344//23
f 339//23 338//23 342//23 343//23
f 338//23 337//23 341//23 342//23
f 344//23 343//23 347//23 348//23
f 343//23 342//23 346//23 347//23
f 342//23 341//23 345//23 346//23
